<?xml version="1.0"?>
<svg xmlns="http://www.w3.org/2000/svg" height="512px" viewBox="0 0 368 368" width="512px"><path d="m296 176c1.734375 0 3.414062-.558594 4.800781-1.601562l64-48c2.015625-1.503907 3.199219-3.878907 3.199219-6.398438s-1.183594-4.886719-3.199219-6.398438l-64-48c-1.386719-1.042968-3.066406-1.601562-4.800781-1.601562h-80v-56c0-4.425781-3.574219-8-8-8h-48c-4.425781 0-8 3.574219-8 8v56h-80c-1.734375 0-3.414062.558594-4.800781 1.601562l-64 48c-2.015625 1.511719-3.199219 3.886719-3.199219 6.398438s1.183594 4.886719 3.199219 6.398438l64 48c1.386719 1.042968 3.066406 1.601562 4.800781 1.601562h80v112h-32c-4.425781 0-8 3.574219-8 8v56h-104c-4.425781 0-8 3.574219-8 8s3.574219 8 8 8h352c4.425781 0 8-3.574219 8-8s-3.574219-8-8-8h-104v-56c0-4.425781-3.574219-8-8-8h-32v-112zm-128-160h32v48h-32zm72 288v48h-112v-48zm-72-16v-112h32v112zm-93.335938-128-53.328124-40 53.328124-40h218.671876l53.328124 40-53.328124 40zm0 0" fill="#333333"/></svg>
